<svg width="460" height="204" viewBox="0 0 460 204" fill="none" xmlns="http://www.w3.org/2000/svg">
<path fill-rule="evenodd" clip-rule="evenodd" d="M120.451 199.147L104.153 169.138L110.897 164.794C110.593 164.351 110.301 163.935 110.019 163.54C110.404 163.115 110.787 162.678 111.166 162.225C115.978 156.481 108.24 152.729 101.11 151.911C99.8289 150.117 98.9453 148.827 98.3414 147.864C110.995 134.239 104.019 138.169 97.2218 142.168C97.1308 141.443 96.936 140.501 96.5617 139.228C96.4574 138.874 96.3059 138.44 96.1162 137.944C105.168 128.555 89.1054 140.946 96.0543 126.825C106.63 105.334 85.4701 138.123 92.0925 117.883C92.8473 115.577 87.9246 119.087 86.3327 118.338C86.17 118.052 86.0094 117.772 85.8502 117.497C85.8103 116.806 86.1308 115.672 86.9898 113.897C85.5443 113.605 84.3926 113.535 83.4906 113.618C82.7506 112.486 82.1376 111.659 81.7163 111.262C80.5511 113.141 79.5182 114.946 78.5677 116.723C67.9114 113.912 65.345 115.779 77.5557 118.664C76.6612 120.422 75.8306 122.17 75.0147 123.952C70.9477 123.668 67.8158 121.997 74.613 124.834C73.9922 126.206 73.375 127.603 72.7395 129.044C69.221 129.033 66.8318 129.147 71.307 132.288C71.0986 132.758 70.8867 133.234 70.671 133.716L70.4777 134.151C69.3282 134.903 68.0753 135.539 69.5708 136.227C66.3941 143.657 66.465 145.367 66.7871 146.661C66.4778 146.713 66.1773 146.764 65.8551 146.819C53.269 148.98 59.9744 149.731 66.7298 150.884C66.4194 152.085 65.8823 153.691 64.9972 155.916C64.5554 157.026 64.15 158.024 63.7752 158.933C62.9864 159.024 62.1758 159.118 61.3166 159.22C61.5847 160.561 61.8738 161.716 62.1767 162.719C61.65 163.941 61.2042 164.958 60.8108 165.888C59.2331 167.52 57.419 169.588 55.3306 172.198C52.105 176.23 54.2376 177.635 57.275 178.055C57.173 178.54 57.0679 179.047 56.9582 179.582C56.9134 179.801 56.8616 180.019 56.8042 180.236C41.4994 184.368 49.0948 183.719 55.258 184.043C52.8735 188.582 48.8795 193.276 46.9346 199.148H120.451V199.148V199.147Z" fill="#CCCCCC"/>
<path fill-rule="evenodd" clip-rule="evenodd" d="M183.845 199.147C186.38 194.699 188.785 190.083 191.607 186.228L190.25 199.147H221.385L219.686 184.262C222.158 189.478 224.373 194.579 226.864 199.147H238.54L234.085 189.178L251.492 199.147H254.235C249.099 190.963 238.843 171.274 240.413 165.953C242.157 160.044 250.863 172.63 229.404 132.812C231.717 122.544 232.188 146.706 234.446 126.289C222.215 106.619 225.199 98.7927 223.673 89.623C224.656 88.9731 225.711 88.2051 226.83 87.3099C225.705 87.6592 224.609 88.179 223.532 88.8368C223.269 87.4832 222.897 86.093 222.355 84.6245C222.18 84.1494 222.008 83.6871 221.838 83.232C222.32 82.823 222.829 82.4042 223.371 81.9739C228.16 78.1776 227.366 67.6688 221.065 79.8028C220.259 74.9664 219.354 75.1215 218.931 75.6908L218.993 75.8467C219.352 75.0904 220.058 73.2267 221.249 69.1681C223.319 62.1155 213.318 83.472 219.79 61.612C218.234 60.2297 216.746 65.3464 215.816 67.8643C215.493 67.0387 215.178 66.2195 214.868 65.3953C214.907 63.9121 214.996 61.9325 215.141 59.3305C214.121 60.795 213.613 61.3988 213.436 61.431L213.368 61.232C213.642 59.3528 220.79 45.367 211.717 56.0784C211.358 54.8766 210.995 53.6074 210.624 52.2505C212.916 47.1912 216.231 41.8617 209.879 48.6713C209.645 48.0741 209.442 47.5206 209.264 47.0047C208.987 45.8802 208.703 44.6974 208.413 43.4535C208.826 41.3848 208.068 40.6786 208.153 42.3324C207.899 41.2298 207.64 40.081 207.374 38.8773C205.893 40.9842 204.466 43.7077 203.086 46.8727C190.898 46.6306 196.315 46.9247 202.413 48.46C201.831 49.8683 201.258 51.3493 200.693 52.8957C199.13 53.4362 198.446 54.2228 199.829 55.3258C199.578 56.0482 199.33 56.7837 199.083 57.5275C192.175 58.3558 195.29 60.4202 197.774 61.5945C197.688 61.8729 197.601 62.1522 197.514 62.4325C194.529 62.5819 190.342 63.2935 196.491 65.8245C196.207 66.7834 195.925 67.7505 195.645 68.7241C192.935 71.9582 187.718 76.5916 193.381 75.3624C193.559 75.3237 193.695 75.3137 193.795 75.3278L193.48 76.4799C192.216 78.0472 189.01 80.7801 187.493 81.937C185.66 83.3347 188.2 83.9833 191.354 84.401L190.416 87.9306C184.104 89.5935 185.801 90.9303 189.335 91.9759C189.052 93.0321 188.77 94.0767 188.49 95.1055C179.344 95.667 184.443 97.556 187.362 99.1864C187.082 100.182 186.804 101.155 186.527 102.108C181.203 104.958 183.465 104.501 185.84 104.437C185.143 106.759 184.454 108.92 183.773 110.87C183.088 111.425 182.322 112.024 181.458 112.676C179.717 113.991 181.368 113.638 182.822 113.457C182.423 114.487 182.026 115.434 181.631 116.292C181.338 116.5 181.022 116.72 180.673 116.957C176.004 120.133 177.761 119.777 180.082 119.524C176.802 126.371 175.528 129.38 175.363 130.612C175.133 130.822 174.905 131.03 174.663 131.248C174.904 131.214 175.142 131.173 175.381 131.134C175.823 132.421 180.08 128.075 180.786 135.014C177.147 140.852 174.828 147.489 171.21 154.574C162.435 171.761 170.26 157.165 171.536 168.387L156.4 199.147H159.277L176.473 187.8L171.909 199.147H183.846H183.846L183.845 199.147Z" fill="#45A29F"/>
<path fill-rule="evenodd" clip-rule="evenodd" d="M245.223 199.147C247.325 196.054 249.481 193.058 251.825 190.352L250.731 199.147H296.288L294.757 187.813C296.923 191.674 298.959 195.486 301.02 199.147H319.409L316.772 194.163L327.073 199.147H342.115C334.161 187.004 324.53 169.654 326.448 164.16C329.114 156.527 342.426 172.786 309.616 121.348C313.152 108.083 313.871 139.297 317.325 112.921C311.062 104.412 307.411 97.6199 305.234 91.9024C306.523 91.8219 306.336 91.7079 305.11 91.5723C304.966 91.1868 304.827 90.8051 304.696 90.4293C314.512 88.1211 326.654 84.0307 302.738 83.048C302.514 81.8235 302.345 80.6468 302.213 79.5073C302.65 79.0357 302.694 78.5297 302.056 77.9995C301.86 75.8962 301.761 73.9076 301.625 71.9568C305.468 71.3678 307.839 70.6237 301.343 68.7718C300.991 65.6667 300.346 62.5491 298.838 59.0979C297.999 57.1765 297.201 55.386 296.437 53.6996C309.465 50.1539 324.664 47.1652 293.662 47.6828C293.388 47.0995 293.119 46.5279 292.855 45.9672C295.276 42.245 314.617 41.9355 293.144 39.4162C291.676 39.2438 290.483 39.0701 289.514 38.8953C289.074 37.9559 288.645 37.0287 288.222 36.1026C291.487 34.9305 296.369 33.9349 288.612 33.4115C287.591 33.3427 287.073 33.2236 286.863 33.0647L286.753 32.8123C286.924 32.0105 290.819 30.6037 285.248 29.2506C284.641 27.7656 284.039 26.2252 283.434 24.5958C296.217 23.8278 291.622 24.26 283.262 24.1314C283.2 23.9608 283.137 23.7908 283.074 23.6181C283.766 22.5906 283.766 21.4195 281.83 20.0808C281.62 19.4617 281.408 18.8283 281.195 18.1794C288.104 10.3782 293.029 20.3909 280.68 13.342C285.564 8.78527 281.798 9.94916 278.605 9.75056C277.756 6.8145 276.87 3.59079 275.931 5.34058e-05C275.094 1.00667 274.269 2.12711 273.453 3.33971C252.031 9.63478 265.05 6.9703 271.417 6.59376C270.853 7.56086 270.295 8.57666 269.742 9.62772C268.271 10.2522 266.409 10.9907 264.058 11.8699C258.12 14.0899 263.389 12.849 268.564 11.9326C267.754 13.5707 266.956 15.294 266.167 17.0827C264.472 17.8649 262.515 18.74 260.246 19.7257C260.566 20.7753 261.971 21.5779 264.012 22.1929C263.514 23.4255 263.02 24.6813 262.529 25.9582C246.343 27.103 251.727 27.125 261.868 27.6995C260.863 30.3707 259.875 33.1218 258.903 35.9243C237.324 42.2998 246.04 43.5537 256.247 43.7913C255.635 45.6486 255.029 47.5149 254.429 49.3832C246.832 52.6275 237.608 56.9408 234.675 59.3979C224.006 68.3377 244.581 58.2128 251.272 59.3342C249.233 65.8123 247.255 72.1287 245.326 77.9292C244.303 78.9246 243.151 80.0726 241.847 81.4056C241.064 82.2056 241.725 82.9509 243.377 83.6417C240.906 90.6816 238.508 96.6499 236.152 100.761C216.946 134.281 233.498 109.408 235.279 124.191C229.714 131.733 226.168 140.308 220.638 149.459C207.221 171.663 219.185 152.807 221.136 167.304L202.591 199.147H216.552L228.685 192.383L225.465 199.147H245.223L245.223 199.147Z" fill="#E6E6E6"/>
<path fill-rule="evenodd" clip-rule="evenodd" d="M157.189 108.017C157.223 107.426 157.271 106.706 157.343 105.826C157.48 104.153 157.604 102.768 157.714 101.619C177.422 88.304 153.266 96.2272 152.66 95.5837C162.507 73.9409 155.1 81.4015 149.894 86.5695L149.12 82.8361C150.448 80.445 152.242 77.3402 154.61 73.3451C151.009 72.9457 148.669 73.2511 147.21 73.7829L147.251 73.9491C147.851 72.3371 148.343 69.6789 148.342 65.4825C147.297 66.1451 146.376 67.1063 145.587 68.0901C144.984 67.9028 144.027 67.6614 142.499 67.1623C142.391 67.1271 142.288 67.0989 142.182 67.0672C141.632 53.3129 138.289 52.0475 139.547 66.602C137.62 66.547 136.146 67.2322 134.98 68.4497C132.104 59.7867 132.796 63.9454 134.822 68.6188C133.619 69.9565 132.753 71.8802 132.053 74.1493C131.864 74.16 131.669 74.17 131.464 74.179C126.362 74.4047 129.211 75.1868 131.449 76.3307C131.166 77.4649 130.907 78.6573 130.655 79.8833C130.13 80.057 129.519 80.2325 128.803 80.4104C126.451 80.9938 128.815 81.1102 130.303 81.6353C130.158 82.3664 130.014 83.1054 129.865 83.8475C129.348 84.1347 128.674 84.455 127.809 84.8139C123.707 86.5154 124.41 91.174 127.611 92.8745C127.109 94.3519 126.525 95.7526 125.83 97.0323C124.715 97.9072 123.775 98.823 123.314 99.6631C121.374 99.2208 121.429 91.333 122.385 104.037C110.878 109.461 128.221 108.454 120.081 112.45C119.845 113.419 119.893 114.214 120.147 114.87C118.741 116.809 117.279 119.83 115.897 123.214C95.8439 130.017 103.516 131.67 112.446 132.748C111.62 135.28 110.903 137.658 110.349 139.597C109.49 142.599 110.321 138.741 109.735 142.495C109.634 143.143 109.53 143.731 109.422 144.266C103.827 148.082 99.3766 152.289 103.215 154.192C103.453 154.309 103.669 154.419 103.898 154.534C103.881 155.214 103.879 155.989 103.892 156.873C103.943 160.294 103.616 161.142 103.697 161.535C98.3334 161.289 94.5434 161.737 103.546 167.151C100.198 167.65 104.907 161.238 92.923 176.063L95.684 178.821C94.6123 179.626 95.0757 180.506 98.4185 181.553L100.8 183.932L91.7735 192.29C97.0111 194.966 101.834 197.244 106.36 199.147H172.232C177.126 197.292 182.372 195.112 188.109 192.628L180.322 183.695L185.764 173.346C178.396 166.995 185.057 169.708 179.184 166.86C172.175 163.46 181.371 171.431 172.31 165.235C172.4 165.119 172.484 165.008 172.571 164.895C182.356 159.535 190.144 153.448 176.827 154.183C175.66 151.327 171.697 149.682 170.35 143.556C174.443 138.914 177.407 134.747 175.5 134.185C172.258 133.229 169.288 132.773 166.65 132.625L164.518 126.593C165.703 125.614 166.987 124.53 168.386 123.317C171.793 120.361 167.569 120.632 162.772 121.516C162.312 120.229 161.888 119.103 161.495 118.119C162.276 117.05 161.959 116.307 160.566 115.92C159.48 113.517 158.676 112.388 158.013 111.942C172.323 103.71 165.162 105.735 157.19 108.017V108.017L157.189 108.017Z" fill="#E6E6E6"/>
<path fill-rule="evenodd" clip-rule="evenodd" d="M347.554 88.8154C347.576 88.3885 347.586 87.642 347.649 86.329C352.086 83.8702 360.553 80.0928 348.158 79.0198C348.284 77.458 348.392 76.2618 348.479 75.3639C351.304 73.6106 356.332 74.2923 348.709 73.2249C348.753 72.8739 348.751 72.9387 348.696 73.2231C347.285 73.0253 345.446 72.7686 343.075 72.4247C342.899 72.3993 341.836 68.865 341.145 65.6209L340.651 62.845C340.504 61.6979 340.491 60.8086 340.708 60.4652C346.48 51.3274 341.993 51.6227 338.785 52.3332L338.526 50.8749C339.388 50.2535 340.526 49.4563 342.008 48.4318C355.366 39.1954 339.205 47.6853 338.132 40.0418C337.444 35.1417 337.858 47.3293 336.451 34.3627C335.627 26.7627 331.894 28.7178 331.152 24.0223C330.34 23.5922 331.226 22.8007 331.478 22.2682C330.228 24.9202 326.291 35.2903 325.272 40.257C324.496 41.2702 323.86 42.5682 323.319 44.0764C305.389 54.7343 325.147 45.0336 317.059 51.106C313.216 53.9909 324.771 55.6795 316.323 62.8202C308.43 69.4911 314.873 67.8966 317.388 70.7039C316.818 72.3244 316.158 73.8381 315.373 75.1881C311.732 81.4502 311.673 62.1616 312.979 83.6689L313.033 84.5634C312.024 86.6493 312.353 87.6369 313.355 88.0287C313.647 89.3507 314.253 89.1752 316.183 91.4879C315.58 91.727 313.355 91.541 312.831 91.7998C308.679 93.8475 303.216 113.287 300.813 123.105C299.954 126.611 300.784 122.106 300.199 126.489C297.981 143.102 294.144 126.612 294.356 143.276C294.472 152.379 292.625 145.878 298.115 153.039C287.464 160.841 298.23 144.243 283.387 165.68L291.264 174.867L282.238 184.626C294.335 191.842 304.24 196.599 313.311 199.146H344.936C354.653 196.539 365.302 191.729 378.573 185.021L370.787 174.592L376.228 162.509C368.86 155.093 375.521 158.261 369.649 154.936C362.639 150.967 371.835 160.274 362.774 153.039C373.96 136.221 362.54 140.535 360.624 126.562L354.93 107.75C354.824 107.404 354.626 106.724 354.526 106.373C353.543 102.924 352.7 100.199 351.967 98.0503L353.44 97.5337C367.42 92.6455 354.051 90.3225 347.554 88.8154L347.554 88.8152L347.554 88.8154ZM347.759 75.9225C347.66 76.0681 347.553 76.1942 347.437 76.2915C347.534 76.1608 347.641 76.0379 347.759 75.9225Z" fill="#45A29F"/>
<path fill-rule="evenodd" clip-rule="evenodd" d="M456.321 197.589L0.172836 203.278H456.106L456.321 197.589Z" fill="black" stroke="black" stroke-width="0.324552" stroke-miterlimit="22.9256"/>
<path d="M357.691 197.649C363.114 197.649 367.511 193.252 367.511 187.829C367.511 182.405 363.114 178.008 357.691 178.008C352.267 178.008 347.87 182.405 347.87 187.829C347.87 193.252 352.267 197.649 357.691 197.649Z" fill="white" stroke="black" stroke-width="0.324552" stroke-miterlimit="22.9256"/>
<path d="M191.287 197.649C196.71 197.649 201.107 193.252 201.107 187.829C201.107 182.405 196.71 178.008 191.287 178.008C185.863 178.008 181.466 182.405 181.466 187.829C181.466 193.252 185.863 197.649 191.287 197.649Z" fill="white" stroke="black" stroke-width="0.324552" stroke-miterlimit="22.9256"/>
<path d="M213.046 167.127H170.61V187.479H213.046V167.127Z" fill="black" stroke="black" stroke-width="0.324552" stroke-miterlimit="22.9256"/>
<path d="M379.586 165.387H337.15V185.739H379.586V165.387Z" fill="black" stroke="black" stroke-width="0.324552" stroke-miterlimit="22.9256"/>
<path fill-rule="evenodd" clip-rule="evenodd" d="M248.814 119.304L248.807 188.348L246.196 190.917H210.917H210.146C209.714 187.823 207.384 179.17 205.917 176.62C203.94 173.185 201.186 171.818 197.332 171.819C193.455 171.82 189.612 171.79 185.736 171.748C179.216 171.677 174.959 174.75 173.784 181.286C173.063 185.527 173.153 186.829 174.216 190.914C169.393 190.933 163.658 191.994 161.429 186.099C160.64 184.016 160.487 179.693 162.033 177.982C162.875 177.05 162.711 176.241 162.712 174.961C162.713 172.389 162.708 169.817 162.708 167.245L165.089 165.441L165.667 163.348L168.553 161.977L174.76 151.945L175.879 151.368L177.575 150.718L182.554 148.445L186.921 145.125L213.119 120.659L214.779 119.288L248.814 119.304V119.304V119.304Z" stroke="#1A1A1A" stroke-width="1.71722" stroke-miterlimit="22.9256"/>
<path fill-rule="evenodd" clip-rule="evenodd" d="M248.814 119.304L248.807 188.348L246.196 190.917H210.917H210.146C209.714 187.823 207.384 179.17 205.917 176.62C203.94 173.185 201.186 171.818 197.332 171.819C193.455 171.82 189.612 171.79 185.736 171.748C179.216 171.677 174.959 174.75 173.784 181.286C173.063 185.527 173.153 186.829 174.216 190.914C169.393 190.933 163.658 191.994 161.429 186.099C160.64 184.016 160.487 179.693 162.033 177.982C162.875 177.05 162.711 176.241 162.712 174.961C162.713 172.389 162.708 169.817 162.708 167.245L165.089 165.441L165.667 163.348L168.553 161.977L174.76 151.945L175.879 151.368L177.575 150.718L182.554 148.445L186.921 145.125L213.119 120.659L214.779 119.288L248.814 119.304V119.304V119.304Z" fill="white"/>
<path fill-rule="evenodd" clip-rule="evenodd" d="M256.094 92.3839L248.27 113.834L248.485 117.879H213.338L212.174 115.863C217.471 110.566 222.152 105.516 228.119 100.92C234.007 96.3847 238.799 94.3385 246.023 92.6844C247.818 92.2736 253.38 92.3653 255.557 92.3303L256.094 92.3839V92.3839Z" stroke="#1A1A1A" stroke-width="1.71722" stroke-miterlimit="22.9256"/>
<path fill-rule="evenodd" clip-rule="evenodd" d="M256.094 92.3839L248.27 113.834L248.485 117.879H213.338L212.174 115.863C217.471 110.566 222.152 105.516 228.119 100.92C234.007 96.3847 238.799 94.3385 246.023 92.6844C247.818 92.2736 253.38 92.3653 255.557 92.3303L256.094 92.3839V92.3839Z" fill="white"/>
<path fill-rule="evenodd" clip-rule="evenodd" d="M257.194 95.0368C267.558 94.9891 277.922 94.9412 288.286 94.8933C302.65 94.8269 317.015 94.7606 331.379 94.6944C342.288 94.644 353.198 94.594 364.107 94.5433C371.017 94.5115 377.926 94.4795 384.835 94.4475C395.381 94.3988 405.927 94.3501 416.473 94.3017C425.712 94.2591 435.032 94.1241 444.259 94.1484C454.795 94.1761 453.251 105.005 453.246 112.489C453.229 137.993 453.246 163.499 453.246 189.003H375.044C373.842 180.289 366.592 173.589 357.827 173.589C349.061 173.589 341.811 180.289 340.61 189.003H250.303V114.235L257.195 95.0368H257.194H257.194Z" stroke="#1A1A1A" stroke-width="1.71722" stroke-miterlimit="22.9256"/>
<path fill-rule="evenodd" clip-rule="evenodd" d="M257.194 95.0368C267.558 94.9891 277.922 94.9412 288.286 94.8933C302.65 94.8269 317.015 94.7606 331.379 94.6944C342.288 94.644 353.198 94.594 364.107 94.5433C371.017 94.5115 377.926 94.4795 384.835 94.4475C395.381 94.3988 405.927 94.3501 416.473 94.3017C425.712 94.2591 435.032 94.1241 444.259 94.1484C454.795 94.1761 453.251 105.005 453.246 112.489C453.229 137.993 453.246 163.499 453.246 189.003H375.044C373.842 180.289 366.592 173.589 357.827 173.589C349.061 173.589 341.811 180.289 340.61 189.003H250.303V114.235L257.195 95.0368H257.194H257.194Z" fill="white"/>
<path fill-rule="evenodd" clip-rule="evenodd" d="M171.84 152.63L172.533 153.034L167.883 160.275L165.104 161.754L166.078 156.702L171.84 152.63Z" stroke="#1A1A1A" stroke-width="1.71722" stroke-miterlimit="22.9256"/>
<path fill-rule="evenodd" clip-rule="evenodd" d="M171.84 152.63L172.533 153.034L167.883 160.275L165.104 161.754L166.078 156.702L171.84 152.63Z" fill="#F0F0F0"/>
<path fill-rule="evenodd" clip-rule="evenodd" d="M454.243 188.635H458.393V172.018C458.393 170.877 457.459 169.943 456.318 169.943H454.243V188.635H454.243Z" stroke="#1A1A1A" stroke-width="1.71722" stroke-miterlimit="22.9256"/>
<path fill-rule="evenodd" clip-rule="evenodd" d="M454.243 188.635H458.393V172.018C458.393 170.877 457.459 169.943 456.318 169.943H454.243V188.635H454.243Z" fill="#E6E6E6"/>
<path fill-rule="evenodd" clip-rule="evenodd" d="M274.131 92.7682H306.759V90.4071H274.131V92.7682Z" stroke="#1A1A1A" stroke-width="1.71722" stroke-miterlimit="22.9256"/>
<path fill-rule="evenodd" clip-rule="evenodd" d="M274.131 92.7682H306.759V90.4071H274.131V92.7682Z" fill="white"/>
<path fill-rule="evenodd" clip-rule="evenodd" d="M191.295 179.275C195.067 179.275 198.125 182.333 198.125 186.105C198.125 189.877 195.067 192.934 191.295 192.934C187.523 192.934 184.466 189.877 184.466 186.105C184.466 182.333 187.523 179.275 191.295 179.275Z" stroke="black" stroke-width="1.15471" stroke-miterlimit="22.9256"/>
<path fill-rule="evenodd" clip-rule="evenodd" d="M191.295 179.275C195.067 179.275 198.125 182.333 198.125 186.105C198.125 189.877 195.067 192.934 191.295 192.934C187.523 192.934 184.466 189.877 184.466 186.105C184.466 182.333 187.523 179.275 191.295 179.275Z" fill="#F0F0F0"/>
<path fill-rule="evenodd" clip-rule="evenodd" d="M357.691 180.999C361.463 180.999 364.52 184.057 364.52 187.829C364.52 191.601 361.463 194.658 357.691 194.658C353.919 194.658 350.861 191.601 350.861 187.829C350.861 184.057 353.919 180.999 357.691 180.999Z" stroke="black" stroke-width="1.15471" stroke-miterlimit="22.9256"/>
<path fill-rule="evenodd" clip-rule="evenodd" d="M357.691 180.999C361.463 180.999 364.52 184.057 364.52 187.829C364.52 191.601 361.463 194.658 357.691 194.658C353.919 194.658 350.861 191.601 350.861 187.829C350.861 184.057 353.919 180.999 357.691 180.999Z" fill="#F0F0F0"/>
<path fill-rule="evenodd" clip-rule="evenodd" d="M375.04 189.146L453.249 189.132L453.232 185.671L374.128 185.229L375.04 189.146Z" fill="#CCCCCC"/>
<path fill-rule="evenodd" clip-rule="evenodd" d="M422.643 144.494H445.976C446.863 144.494 447.589 145.22 447.589 146.107V178.967C447.589 179.853 446.863 180.579 445.976 180.579H422.643C421.756 180.579 421.03 179.853 421.03 178.967V146.107C421.03 145.22 421.756 144.494 422.643 144.494Z" fill="white"/>
<path fill-rule="evenodd" clip-rule="evenodd" d="M384.062 104.7H420.096C420.827 104.7 421.42 105.293 421.42 106.024V127.337C421.42 128.068 420.827 128.661 420.096 128.661L384.062 128.661C383.33 128.661 382.737 128.068 382.737 127.337V106.024C382.737 105.293 383.33 104.7 384.062 104.7V104.7Z" fill="black" stroke="black" stroke-width="0.324552" stroke-miterlimit="22.9256"/>
<path fill-rule="evenodd" clip-rule="evenodd" d="M260.506 116.824H288.89C289.622 116.824 290.215 117.417 290.215 118.149V139.316C290.215 140.047 289.622 140.641 288.89 140.641L260.506 140.641C259.775 140.641 259.182 140.048 259.182 139.316L259.181 118.149C259.182 117.418 259.775 116.824 260.506 116.824V116.824Z" fill="black" stroke="black" stroke-width="0.324552" stroke-miterlimit="22.9256"/>
<path fill-rule="evenodd" clip-rule="evenodd" d="M306.118 116.536H335.224C335.955 116.536 336.548 117.129 336.548 117.86V133.975C336.548 134.707 335.955 135.3 335.224 135.3L306.118 135.3C305.387 135.3 304.793 134.707 304.793 133.975V117.861C304.793 117.129 305.386 116.536 306.118 116.536V116.536Z" fill="black" stroke="black" stroke-width="0.324552" stroke-miterlimit="22.9256"/>
<path fill-rule="evenodd" clip-rule="evenodd" d="M186.457 149.643L186.371 151.618L196.27 151.476L196.34 140.552L186.457 149.643Z" fill="black"/>
<path fill-rule="evenodd" clip-rule="evenodd" d="M197.669 139.33V151.404C201.547 151.192 205.433 151.054 209.301 150.72L215.594 122.841L197.669 139.33V139.33ZM210.48 150.611C211.245 150.537 212.008 150.453 212.771 150.359C216.195 149.935 222.131 149.633 224.951 147.984C230.286 144.25 230.944 134.696 231.976 128.638C232.281 126.844 233.35 122.539 230.986 121.765C229.018 121.119 220.6 121.849 216.908 122.14L210.48 150.611L210.481 150.611L210.48 150.611Z" fill="black"/>
<path fill-rule="evenodd" clip-rule="evenodd" d="M191.295 171.959C199.108 171.959 205.441 178.292 205.441 186.105C205.441 193.917 199.108 200.25 191.295 200.25C183.483 200.25 177.15 193.917 177.15 186.105C177.15 178.292 183.483 171.959 191.295 171.959ZM191.295 177.527C196.033 177.527 199.873 181.367 199.873 186.105C199.873 190.842 196.033 194.682 191.295 194.682C186.558 194.682 182.718 190.842 182.718 186.105C182.718 181.367 186.558 177.527 191.295 177.527Z" fill="black" stroke="black" stroke-width="0.324552" stroke-miterlimit="22.9256"/>
<path fill-rule="evenodd" clip-rule="evenodd" d="M357.691 173.683C365.503 173.683 371.836 180.016 371.836 187.829C371.836 195.641 365.503 201.974 357.691 201.974C349.878 201.974 343.545 195.641 343.545 187.829C343.545 180.016 349.878 173.683 357.691 173.683V173.683ZM357.691 179.251C362.428 179.251 366.268 183.091 366.268 187.829C366.268 192.566 362.428 196.406 357.691 196.406C352.953 196.406 349.113 192.566 349.113 187.829C349.113 183.091 352.953 179.251 357.691 179.251V179.251Z" fill="black" stroke="black" stroke-width="0.324552" stroke-miterlimit="22.9256"/>
<path fill-rule="evenodd" clip-rule="evenodd" d="M340.332 155.317C343.967 154.798 347.593 154.211 351.223 153.662L407.227 147.167C386.596 150.219 365.878 153.493 345.229 156.325C328.66 158.581 310.883 160.254 294.171 160.547C289.006 160.589 284.644 159.756 279.289 160.052C269.886 160.571 262.251 161.033 252.92 162.791C252.051 162.956 251.179 163.124 250.305 163.296V160.15C250.904 160.084 251.505 160.018 252.108 159.955C262.988 158.814 274.32 157.948 285.257 157.784C286.92 157.759 288.569 157.766 290.233 157.799C303.174 158.093 314.979 158.548 327.912 157.005C332.061 156.51 336.196 155.908 340.332 155.317H340.332L340.332 155.317ZM248.803 163.594C237.238 165.911 225.352 168.792 214.025 171.701C213.248 171.9 206.259 174.008 206.227 174.005C205.659 173.961 203.296 171.763 202.759 171.285C209.653 168.723 214.906 166.753 222.141 164.995C231.157 162.804 239.723 161.379 248.803 160.322V163.595V163.594Z" fill="#45A29E"/>
<path fill-rule="evenodd" clip-rule="evenodd" d="M258.091 168.196C255.499 168.706 252.903 169.195 250.306 169.68V166.463C268.742 163.253 287.129 158.934 305.573 155.993C323.552 153.126 340.11 151.909 358.272 151.279C363.965 151.082 361.137 151.214 357.71 151.56C340.641 153.282 324.646 155.051 307.73 158.16C296.817 160.166 285.99 161.383 275.209 164.2C269.511 165.724 263.879 167.051 258.091 168.196H258.091V168.196ZM248.803 169.961L248.321 170.051C241.07 171.405 233.938 172.513 226.571 173.022C224.145 173.183 210.627 173.39 209.196 173.111C209.197 173.067 217.974 170.586 218.639 170.41C220.444 169.932 227.148 169.716 229.762 169.452C236.118 168.749 242.464 167.805 248.803 166.723V169.961V169.961Z" fill="#66FCF1"/>
<path fill-rule="evenodd" clip-rule="evenodd" d="M172.152 175.947L171.286 178.833L161.399 180.06L172.152 175.947Z" fill="#66FCF1"/>
<path d="M191.295 187.909C192.292 187.909 193.1 187.101 193.1 186.105C193.1 185.108 192.292 184.3 191.295 184.3C190.299 184.3 189.491 185.108 189.491 186.105C189.491 187.101 190.299 187.909 191.295 187.909Z" fill="#4D4D4D"/>
<path d="M357.691 189.633C358.687 189.633 359.495 188.825 359.495 187.829C359.495 186.832 358.687 186.024 357.691 186.024C356.694 186.024 355.887 186.832 355.887 187.829C355.887 188.825 356.694 189.633 357.691 189.633Z" fill="#4D4D4D"/>
<path fill-rule="evenodd" clip-rule="evenodd" d="M384.142 11.565L381.937 13.2829C381.354 10.9548 380.806 10.5371 380.63 8.19552C380.555 7.19136 379.692 6.11126 380.613 5.44068L380.561 4.50818C380.751 4.42454 380.91 4.38486 381.101 4.25973C381.412 4.05604 381.1 4.19117 381.48 3.99274C382.305 4.31417 382.296 4.03734 382.531 4.13394C383.028 4.59871 383.67 6.05682 383.824 6.93552L384.289 6.27575C384.513 5.98335 384.604 5.97367 385.02 5.97908C385.069 6.48141 384.764 7.38258 384.76 8.06415C384.748 10.155 383.853 9.78892 384.142 11.565H384.142Z" fill="#66FCF1"/>
<path fill-rule="evenodd" clip-rule="evenodd" d="M389.632 23.8386L386.238 26.1784C386.229 25.9893 386.19 25.7753 386.109 25.5204C385.673 24.1517 385.429 23.971 384.871 22.9504L382.874 17.4816C382.6 16.4277 382.396 15.4401 382.172 14.3323C382.151 14.2272 382.13 14.1252 382.109 14.026L384.252 12.1052C384.345 12.4987 384.482 12.9738 384.674 13.5565C385.41 15.7873 386.755 17.8048 387.3 20.1367C387.507 21.0223 387.47 21.1889 387.958 21.83C388.263 22.2303 388.666 22.6957 388.973 23.0505C389.246 23.3653 389.461 23.6213 389.632 23.8386H389.632V23.8386Z" fill="#202934"/>
<path fill-rule="evenodd" clip-rule="evenodd" d="M394.805 27.4524C394.168 27.2569 393.954 26.9978 393.785 26.4241C393.651 25.9721 393.64 25.3511 393.835 25.0253C393.854 24.9939 393.945 24.9146 393.957 24.8533C394.186 23.6965 393.216 23.296 394.528 21.3813C395.24 20.3414 395.618 20.0383 397.254 20.0072C398.602 19.9813 399.439 19.7823 400.079 21.011C400.922 22.6302 400.656 22.4758 400.783 24.3672C401.401 24.8891 401.436 25.016 401.191 25.9434C400.908 27.021 400.82 26.6502 400.225 27.1275C400.163 27.537 399.874 29.562 399.983 29.8203C400.293 30.5521 400.794 30.1185 401.287 30.2264C400.338 31.6614 399.492 32.8123 397.541 32.6291C396.124 32.4963 395.237 31.5412 394.588 30.3494C394.408 30.0184 395.75 30.9895 395.267 29.1553C395.118 28.588 394.958 28.0193 394.805 27.4522L394.805 27.4524Z" fill="#202934"/>
<path fill-rule="evenodd" clip-rule="evenodd" d="M405.277 53.8928C405.429 55.013 405.727 56.7526 405.802 57.3108C405.94 58.334 405.964 58.7676 405.827 59.7527C405.587 61.4798 406.249 64.8759 406.262 66.9531C406.272 68.5893 406.556 70.0307 406.536 71.7872L405.235 71.9426C405.108 75.4029 407.089 75.664 405.848 84.5261C405.118 89.7419 406.631 88.2115 407.191 89.0723C407.462 90.5221 407.472 90.3281 408.246 91.1774C408.762 91.7422 409.362 92.5168 409.148 93.1352H404.657C404.45 92.7874 404.298 92.4312 404.072 92.2012C403.401 91.5188 402.562 91.8291 402.807 90.3812C402.918 89.7313 402.977 89.9061 403.361 89.5607C403.417 88.2776 402.91 88.7719 403.166 87.4502C403.449 85.991 402.499 82.4319 402.075 81.0469C401.391 78.8115 402.144 76.115 401.308 74.1974C399.953 71.0925 400.78 73.6002 397.892 71.8496C397.999 69.393 398.406 70.6947 397.874 67.4885C397.679 66.3104 397.661 64.1895 397.329 63.3486C397.206 64.1259 397.377 64.8467 397.256 65.6299C397.173 66.1692 396.999 66.9613 396.876 67.4915C396.575 68.7795 396.7 70.4002 396.509 71.7543L395.006 72.0769C394.485 73.3811 393.856 74.292 393.839 76.0218C393.823 77.745 393.901 79.1793 393.426 80.7194C393.02 82.0345 392.997 83.6258 392.65 85.1009C392.466 85.8829 392.259 86.5244 392.449 87.3958C392.689 88.499 392.42 88.3929 392.387 89.4436C392.911 89.7096 393.21 90.272 392.958 91.0708C392.752 91.7255 392.177 91.824 391.486 91.9621C391.26 92.3682 391.103 92.7818 390.909 93.1354H386.255L386.241 93.1095C386.025 92.2832 387.874 90.8063 388.453 90.2539C388.477 89.1312 388.6 88.4383 389.677 88.168C390.205 85.7225 390.107 86.4095 389.685 83.9582C388.39 76.442 390.354 76.1524 390.031 71.1331L388.716 71.1319C387.398 70.9358 388.972 62.9589 389.092 61.8311C389.183 60.9714 388.945 59.9763 389.088 59.1992C389.335 57.8633 389.351 56.2096 389.717 54.819C389.848 54.3193 390.009 53.9228 390.158 53.4939L391.348 53.7711L393.844 53.8516L396.178 53.5297L400.149 53.476L403.745 53.6907L405.277 53.8931V53.8929L405.277 53.8928Z" fill="#202934"/>
<path fill-rule="evenodd" clip-rule="evenodd" d="M408.75 22.1714L410.822 26.1779C411.082 27.1794 411.301 28.2397 410.74 28.9267L409.872 29.8951C409.571 30.2539 409.357 30.485 409.048 30.9106C406.391 34.5644 406.279 34.5969 406.639 39.2054C406.979 43.5673 407.711 48.115 408.199 52.415C407.26 52.672 406.327 52.8765 405.186 52.9613C405.184 52.9941 405.185 53.0401 405.188 53.0966C405.168 53.0977 405.152 53.099 405.14 53.1005C404.925 53.1272 402.993 53.0738 402.001 52.9663C401.008 52.8589 399.613 52.6175 399.371 52.6175C399.13 52.6175 397.627 52.7786 397.627 52.7786L394.702 53.2346L392.046 53.02L390.141 52.8053L390.126 52.815L388.116 52.6703C388.611 48.1191 389.598 43.6344 389.998 39.2238C390.277 36.1567 389.866 35.5689 388.548 33.3325C388.012 32.4226 385.844 29.3273 385.811 28.5785C385.786 28.0344 385.877 27.6632 385.981 27.3453L390.179 24.6442C390.448 25.1601 390.485 25.5813 390.986 26.8044C391.202 27.3316 391.17 27.0692 391.596 27.3943C392.002 27.7042 391.819 27.6911 392.071 28.0949C392.747 29.1783 393.378 29.2493 393.835 29.7529C393.911 29.8362 393.972 29.9123 394.038 29.9809L394.797 31.6343L395.897 33.1906L397.48 33.6467L399.278 33.4858L400.781 32.305L401.908 30.8425L402.444 29.4259C402.466 29.4098 402.488 29.3921 402.512 29.3728C402.967 29.0003 402.953 28.7755 403.247 28.4017C403.45 28.1441 403.536 28.1585 403.833 28.0632C404.463 27.8617 404.683 27.3531 405.218 26.9464C405.302 25.8502 405.248 26.3393 405.717 25.6113C406.416 24.5269 407.363 23.5846 408.335 22.7067C408.513 22.5462 408.646 22.3661 408.75 22.1711H408.75L408.75 22.1714Z" fill="#66FCF1"/>
<path fill-rule="evenodd" clip-rule="evenodd" d="M409.205 20.5582L410.897 24.5919C411.101 24.2437 411.429 23.9772 411.749 23.6243C411.964 23.3868 412.386 21.6242 412.657 20.8517C413.327 18.9428 413.919 17.0439 414.146 14.9883C414.185 14.6339 414.213 14.2872 414.247 13.9471L412.106 12.3155C411.916 13.2371 411.388 14.7287 410.286 17.4224C409.927 18.2976 409.615 19.082 409.334 20.0391C409.283 20.2128 409.242 20.3863 409.205 20.558L409.205 20.5582V20.5582Z" fill="#202934"/>
<path fill-rule="evenodd" clip-rule="evenodd" d="M412.191 11.6005L414.336 13.2158C414.408 12.7542 414.514 12.3035 414.703 11.8607C415.141 10.8336 415.319 10.0221 415.208 8.76378C415.127 7.84063 415.442 5.89726 415.087 5.35606C414.371 5.50169 414.641 6.94619 414.355 7.67073C414.332 6.28495 414.672 5.67651 414.712 4.4813C414.083 4.15658 414.06 3.85564 413.805 3.86056C412.929 4.23038 413.107 6.42107 412.797 7.24138C412.765 6.24313 413.343 4.76665 413.017 4.25121C412.013 4.36666 411.881 6.75169 411.836 7.57922L411.413 6.7835C411.234 6.54242 411.095 6.43435 410.74 6.44698C410.642 6.89486 411.078 8.78559 411.248 9.32088C411.644 10.5661 412.193 10.6968 412.191 11.6003L412.191 11.6005Z" fill="#66FCF1"/>
<path fill-rule="evenodd" clip-rule="evenodd" d="M369.839 60.8209C379.161 60.8209 386.717 68.3777 386.717 77.6992C386.717 87.021 379.161 94.5776 369.839 94.5776C360.517 94.5776 352.961 87.0207 352.961 77.6992C352.961 68.3774 360.518 60.8209 369.839 60.8209V60.8209ZM369.839 63.7661C377.534 63.7661 383.773 70.0044 383.773 77.6997C383.773 85.395 377.534 91.6332 369.839 91.6332C362.144 91.6332 355.906 85.395 355.906 77.6997C355.906 70.0044 362.144 63.7661 369.839 63.7661V63.7661Z" fill="#202934"/>
<path fill-rule="evenodd" clip-rule="evenodd" d="M425.455 60.821C434.777 60.821 442.334 68.3777 442.334 77.6992C442.334 87.0212 434.777 94.5776 425.455 94.5776C416.133 94.5776 408.577 87.0209 408.577 77.6992C408.577 68.3774 416.134 60.821 425.455 60.821ZM425.455 63.7661C433.151 63.7661 439.389 70.0043 439.389 77.6995C439.389 85.3948 433.151 91.6332 425.455 91.6332C417.76 91.6332 411.522 85.3948 411.522 77.6995C411.522 70.0043 417.76 63.7661 425.455 63.7661V63.7661Z" fill="#202934"/>
<path fill-rule="evenodd" clip-rule="evenodd" d="M383.806 51.0394L385.059 51.6872C385.212 51.2965 385.572 50.6054 385.709 50.3345L386.46 48.777L382.859 46.9753C382.272 47.3684 381.583 48.1317 381.003 48.4392C381.138 48.6425 381.731 49.3941 381.903 49.5091C382.121 49.4507 382.278 49.2501 382.458 49.1076C382.672 48.9382 382.801 48.8167 383.028 48.6643L384.593 49.4164C384.32 49.9312 384.063 50.4852 383.806 51.0394V51.0394Z" fill="#202934"/>
<path fill-rule="evenodd" clip-rule="evenodd" d="M403.022 77.0462L401.567 76.721C401.557 75.1666 401.399 73.6501 401.398 72.0977L401.062 71.9265C401.062 71.4685 400.95 70.9348 400.949 70.4625C400.946 69.5807 400.633 67.0808 400.611 66.1269C400.911 66.1269 400.926 66.1777 401.174 66.1831C401.174 65.9004 401.115 65.7944 401.116 65.4525C401.117 65.1893 401.118 64.9262 401.118 64.663C401.879 65.0665 404.579 66.1679 405.764 66.5115L404.651 69.7306H404.437C404.417 69.4864 404.315 69.204 404.257 68.9542C404.014 67.9226 404.063 67.2594 403.312 67.197L403.223 68.6283C403.159 69.0559 403.312 71.0394 403.299 71.5359C403.291 71.8142 402.862 72.2893 402.862 72.6023C402.862 73.4607 402.922 74.1543 402.917 74.968L403.022 77.0464L403.022 77.0462Z" fill="#202934"/>
<path fill-rule="evenodd" clip-rule="evenodd" d="M383.725 51.1468L384.978 51.7946C384.949 51.8697 384.927 51.9337 384.916 51.9815C384.941 51.9947 384.966 52.0078 384.99 52.0211L383.829 54.3611C383.802 54.3543 383.771 54.3493 383.735 54.3464C383.647 54.7246 382.534 56.9794 382.253 57.5371C381.417 59.1979 380.69 60.9083 379.853 62.5675L378.953 64.4251C377.489 67.3268 376.204 70.3216 374.752 73.2277C374.571 73.5911 374.262 74.1136 374.171 74.504C374.663 75.2394 374.968 75.7855 375.076 76.9199C375.195 78.1648 374.861 79.2495 374.212 80.1193L373.396 80.9918C371.373 82.7712 368.275 82.3302 366.619 80.3166C364.082 77.2307 366.48 72.5895 370.12 72.5895C371.516 72.5895 372.071 72.8883 373.102 73.4341C373.153 73.2131 373.347 72.8855 373.458 72.665C373.595 72.3936 373.677 72.1674 373.814 71.8948C374.069 71.3876 374.273 70.9204 374.527 70.4123C374.78 69.9067 374.994 69.4178 375.24 68.9298L379.89 59.1694C381.006 56.9538 381.987 54.6891 383.097 52.4693C383.311 52.0417 383.518 51.594 383.725 51.1466L383.725 51.1468ZM370.964 77.6007H370.233V79.0083C372.299 79.0083 371.889 79.1839 372.314 78.3326C372.462 78.0367 373.302 76.1824 373.44 76.024C373.657 76.9576 373.665 76.4248 373.665 77.6007C373.665 80.0649 370.181 81.9199 367.996 79.7267C367.719 79.4486 367.453 79.1147 367.29 78.7441C365.946 75.6996 369.253 72.8449 372.031 74.4489C372.183 74.5364 372.29 74.6375 372.427 74.7289C372.323 75.1735 371.966 75.7462 371.768 76.2091C371.674 76.4304 371.162 77.6005 370.964 77.6005V77.6007Z" stroke="#1A1A1A" stroke-width="1.71722" stroke-miterlimit="22.9256"/>
<path fill-rule="evenodd" clip-rule="evenodd" d="M383.725 51.1468L384.978 51.7946C384.949 51.8697 384.927 51.9337 384.916 51.9815C384.941 51.9947 384.966 52.0078 384.99 52.0211L383.829 54.3611C383.802 54.3543 383.771 54.3493 383.735 54.3464C383.647 54.7246 382.534 56.9794 382.253 57.5371C381.417 59.1979 380.69 60.9083 379.853 62.5675L378.953 64.4251C377.489 67.3268 376.204 70.3216 374.752 73.2277C374.571 73.5911 374.262 74.1136 374.171 74.504C374.663 75.2394 374.968 75.7855 375.076 76.9199C375.195 78.1648 374.861 79.2495 374.212 80.1193L373.396 80.9918C371.373 82.7712 368.275 82.3302 366.619 80.3166C364.082 77.2307 366.48 72.5895 370.12 72.5895C371.516 72.5895 372.071 72.8883 373.102 73.4341C373.153 73.2131 373.347 72.8855 373.458 72.665C373.595 72.3936 373.677 72.1674 373.814 71.8948C374.069 71.3876 374.273 70.9204 374.527 70.4123C374.78 69.9067 374.994 69.4178 375.24 68.9298L379.89 59.1694C381.006 56.9538 381.987 54.6891 383.097 52.4693C383.311 52.0417 383.518 51.594 383.725 51.1466L383.725 51.1468ZM370.964 77.6007H370.233V79.0083C372.299 79.0083 371.889 79.1839 372.314 78.3326C372.462 78.0367 373.302 76.1824 373.44 76.024C373.657 76.9576 373.665 76.4248 373.665 77.6007C373.665 80.0649 370.181 81.9199 367.996 79.7267C367.719 79.4486 367.453 79.1147 367.29 78.7441C365.946 75.6996 369.253 72.8449 372.031 74.4489C372.183 74.5364 372.29 74.6375 372.427 74.7289C372.323 75.1735 371.966 75.7462 371.768 76.2091C371.674 76.4304 371.162 77.6005 370.964 77.6005V77.6007Z" fill="#C5C7C8"/>
<path fill-rule="evenodd" clip-rule="evenodd" d="M402.324 77.7873L402.272 79.2367C401.752 79.1457 401.402 79.0967 400.963 78.751C400.836 78.6503 400.727 78.5645 400.587 78.4518C400.022 77.994 397.731 76.2838 397.512 75.8992L395.799 72.7155C395.703 72.5576 395.642 72.4359 395.563 72.2755L389.167 60.4899C389.019 60.2241 387.414 57.1393 387.139 56.8894C386.411 56.2296 385.237 55.3061 384.456 54.6756C384.312 54.5593 384.264 54.4763 384.124 54.4415L385.285 52.1014C386.719 52.8658 388.078 53.7395 389.506 54.5201C391.433 55.5736 393.326 56.7062 395.228 57.8023L399.52 60.2633C400.975 61.0587 402.36 61.9287 403.813 62.7231C405.205 63.4842 406.536 64.3357 407.93 65.086L407.301 66.3443L396.876 60.376C395.96 59.8754 395.137 59.3651 394.23 58.8577C393.335 58.357 392.488 57.8574 391.622 57.3573L388.969 55.8454C388.743 55.7091 386.563 54.4235 386.336 54.3705L386.28 54.3143L386.336 54.3705L387.341 55.2223C388.361 56.0302 388.246 55.8873 388.793 56.8659L390.537 60.0755C390.692 60.3519 390.819 60.5969 390.982 60.8696L392.281 63.285C392.878 64.3529 393.424 65.3736 394.006 66.4578L395.094 68.4652C395.185 68.6272 395.231 68.6813 395.319 68.8596C395.464 69.154 395.591 69.3726 395.75 69.6673C395.839 69.8349 395.885 69.8821 395.976 70.0602C396.054 70.2157 396.105 70.3362 396.183 70.4715C396.766 71.4742 397.376 72.7316 397.927 73.681C398.789 75.165 398.296 74.8194 399.532 75.7911C400.011 76.1677 400.442 76.5294 400.907 76.893C401.503 77.3596 401.805 77.7335 402.323 77.7875L402.324 77.7873H402.324Z" stroke="#1A1A1A" stroke-width="1.71722" stroke-miterlimit="22.9256"/>
<path fill-rule="evenodd" clip-rule="evenodd" d="M402.324 77.7873L402.272 79.2367C401.752 79.1457 401.402 79.0967 400.963 78.751C400.836 78.6503 400.727 78.5645 400.587 78.4518C400.022 77.994 397.731 76.2838 397.512 75.8992L395.799 72.7155C395.703 72.5576 395.642 72.4359 395.563 72.2755L389.167 60.4899C389.019 60.2241 387.414 57.1393 387.139 56.8894C386.411 56.2296 385.237 55.3061 384.456 54.6756C384.312 54.5593 384.264 54.4763 384.124 54.4415L385.285 52.1014C386.719 52.8658 388.078 53.7395 389.506 54.5201C391.433 55.5736 393.326 56.7062 395.228 57.8023L399.52 60.2633C400.975 61.0587 402.36 61.9287 403.813 62.7231C405.205 63.4842 406.536 64.3357 407.93 65.086L407.301 66.3443L396.876 60.376C395.96 59.8754 395.137 59.3651 394.23 58.8577C393.335 58.357 392.488 57.8574 391.622 57.3573L388.969 55.8454C388.743 55.7091 386.563 54.4235 386.336 54.3705L386.28 54.3143L386.336 54.3705L387.341 55.2223C388.361 56.0302 388.246 55.8873 388.793 56.8659L390.537 60.0755C390.692 60.3519 390.819 60.5969 390.982 60.8696L392.281 63.285C392.878 64.3529 393.424 65.3736 394.006 66.4578L395.094 68.4652C395.185 68.6272 395.231 68.6813 395.319 68.8596C395.464 69.154 395.591 69.3726 395.75 69.6673C395.839 69.8349 395.885 69.8821 395.976 70.0602C396.054 70.2157 396.105 70.3362 396.183 70.4715C396.766 71.4742 397.376 72.7316 397.927 73.681C398.789 75.165 398.296 74.8194 399.532 75.7911C400.011 76.1677 400.442 76.5294 400.907 76.893C401.503 77.3596 401.805 77.7335 402.323 77.7875L402.324 77.7873H402.324Z" fill="#6EFAF2"/>
<path fill-rule="evenodd" clip-rule="evenodd" d="M403.961 78.0661L402.506 77.7409C402.506 77.7427 402.506 77.7443 402.506 77.746L403.962 78.0797L403.969 78.2393C404.201 78.2591 404.069 78.2435 404.138 78.2955C404.268 78.2485 404.183 78.2909 404.271 78.2029C404.654 77.8145 405 77.0596 406.22 76.7753L405.424 73.0627C405.334 72.6038 405.714 71.3643 405.714 70.7503H405.644H405.595L406.723 67.5373C406.777 67.5525 406.827 67.5663 406.874 67.5783C406.901 67.5853 406.927 67.5914 406.951 67.5973C407.142 67.2371 407.322 66.8906 407.514 66.5274L407.381 66.4518L408.01 65.1934C408.07 65.2254 408.129 65.2572 408.189 65.2887C408.217 64.9531 410.947 57.8553 411.042 57.6146C411.45 56.5714 413.512 50.8393 413.927 49.9734C414.305 50.1733 414.826 50.2904 415.221 50.4801C415.138 50.8367 414.955 51.237 414.836 51.5586L412.064 58.9196C411.81 59.6219 411.547 60.3323 411.267 61.0495C410.988 61.7622 410.758 62.4194 410.479 63.1328C410.274 63.6564 409.037 66.8142 408.918 67.3229L408.695 67.2596C408.624 67.5668 408.429 67.7409 408.358 68.0481C408.512 68.1221 408.707 68.1596 408.871 68.2098C409.649 68.4473 410.675 68.905 411.452 68.9486C411.741 68.9649 411.751 69.005 411.948 69.1282L415.725 71.2038C417.673 72.3358 419.703 73.3833 421.673 74.485C421.944 74.6366 422.229 74.8462 422.535 74.9175C422.857 74.7017 423.036 74.261 423.941 73.7907C424.837 73.3244 425.441 73.2285 426.529 73.2285C427.552 73.2285 428.629 73.7052 429.328 74.3686C429.453 74.4877 429.532 74.5191 429.631 74.6282C430.558 75.6511 430.973 76.7139 430.973 78.1835C430.973 80.5371 428.981 82.4347 426.714 82.7043C426.235 82.761 426.246 82.6418 426.132 83.0797C426.028 83.4787 425.976 83.4033 426.171 83.7768C426.454 84.3184 427.681 86.7222 427.71 87.0798C427.045 87.0798 426.433 87.1924 425.797 87.1924C425.234 86.1261 425.797 86.4349 425.797 85.8973C425.797 85.7878 425.404 84.8576 425.331 84.6749C424.602 82.855 424.967 83.7821 425.235 82.6316C423.716 82.2774 422.742 81.4476 421.995 80.1876C421.879 79.9923 421.845 79.8332 421.747 79.6474C421.348 79.7402 420.72 79.7981 420.323 79.8556C419.818 79.929 419.383 79.9813 418.887 80.0511C417.953 80.1828 416.987 80.3076 416.018 80.4452L411.716 81.0381C411.223 81.1115 410.867 81.0548 410.27 81.0548C410.214 81.296 409.98 81.7242 409.838 81.9171C409.671 82.1434 409.453 82.3792 409.241 82.5588C408.489 83.1974 407.829 83.3072 406.839 83.3072C405.691 83.3072 404.278 82.3084 404.026 81.2237C403.678 81.3907 400.75 81.4961 400.163 81.6372C399.783 81.7285 399.763 82.3499 398.962 82.3499C397.208 82.3499 397.347 79.9286 398.794 79.9286C399.739 79.9286 399.428 80.304 400.095 80.2232C400.539 80.1694 400.941 80.1251 401.379 80.0956C401.777 80.0688 402.278 80.0205 402.708 79.9613C403.535 79.8471 403.716 80.0083 403.8 79.6472C403.419 79.5585 403.049 79.4786 402.643 79.3983C402.54 79.3779 402.444 79.3605 402.353 79.3446L402.405 77.8952C402.438 77.8988 402.472 77.901 402.507 77.9018C402.507 77.8498 402.507 77.7981 402.506 77.7463L403.961 78.08L403.961 78.0664L403.961 78.0666L403.961 78.0661ZM407.176 70.6378C408.204 70.6378 409.701 70.475 410.777 70.4121C411.463 70.3723 411.388 70.4492 411.808 70.6757C413.27 71.4632 414.928 72.4377 416.346 73.1724C416.506 73.2552 416.625 73.31 416.786 73.4079L419.291 74.7856C419.47 74.8765 419.516 74.9211 419.684 75.0113L421.804 76.1559C421.71 76.5588 421.466 76.9163 421.466 77.7325V78.2955L418.719 78.643C417.839 78.7678 416.879 78.8928 415.999 79.0178C415.07 79.1496 414.211 79.252 413.277 79.3897C412.096 79.5639 411.64 79.6469 410.439 79.6469C410.259 78.8713 410.143 78.3177 409.526 77.6891C409.152 77.3079 408.342 76.7189 407.627 76.7189L407.022 73.7203C406.866 72.9339 406.806 73.0297 406.943 72.2066C407.019 71.7512 407.176 71.0949 407.176 70.6378ZM426.023 74.6354C427.124 74.6354 427.879 74.8865 428.598 75.6058C429.893 76.902 429.908 78.9958 428.569 80.3367C428.255 80.6507 428.047 80.8118 427.618 81.0181C425.415 82.0782 423.332 80.214 423.266 79.4215C423.685 79.4215 427.631 78.8559 428.439 78.7428C428.661 78.7116 428.957 78.6512 429.173 78.6332C428.965 78.4518 425.227 76.4417 424.542 76.0612C424.299 75.9258 424.115 75.7721 423.829 75.7053C423.888 75.4841 424.032 75.4243 424.206 75.2945C424.678 74.9429 425.364 74.6356 426.023 74.6356V74.6354H426.023ZM422.872 78.0702C422.872 77.4209 422.907 77.4654 423.041 76.8878C423.215 76.9281 423.317 76.9886 423.468 77.0801C423.638 77.1838 423.729 77.2235 423.903 77.3201C424.217 77.4944 424.604 77.6584 424.729 77.8449C424.103 77.8449 423.332 78.0599 422.872 78.07V78.0702ZM406.558 78.3518H406.164C406.248 78.2375 406.166 78.2493 406.368 78.2081C406.543 78.1724 406.517 78.1968 406.558 78.3518H406.558H406.558ZM407.964 78.2955C408.374 78.3911 408.936 79.1052 408.977 79.5905C408.722 79.5691 408.586 79.5342 408.246 79.5342C408.231 79.364 408.019 78.4105 407.964 78.2957V78.2955V78.2955ZM406.051 78.3518L406.068 78.3685C406.067 78.3675 406.046 78.3574 406.051 78.3518ZM407.233 81.8991C406.611 81.8991 405.908 81.6942 405.608 81.2052C405.486 81.0059 405.659 81.0596 406.338 81.0028L408.245 80.9416C408.528 80.9416 408.497 80.9923 408.752 80.9979C408.466 81.4256 407.938 81.8989 407.233 81.8989L407.233 81.8991ZM406.703 67.5312L405.591 70.7503H405.596L406.724 67.5373C406.717 67.5351 406.71 67.5332 406.703 67.5312V67.5312Z" stroke="#1A1A1A" stroke-width="1.71722" stroke-miterlimit="22.9256"/>
<path fill-rule="evenodd" clip-rule="evenodd" d="M403.961 78.0661L402.506 77.7409C402.506 77.7427 402.506 77.7443 402.506 77.746L403.962 78.0797L403.969 78.2393C404.201 78.2591 404.069 78.2435 404.138 78.2955C404.268 78.2485 404.183 78.2909 404.271 78.2029C404.654 77.8145 405 77.0596 406.22 76.7753L405.424 73.0627C405.334 72.6038 405.714 71.3643 405.714 70.7503H405.644H405.595L406.723 67.5373C406.777 67.5525 406.827 67.5663 406.874 67.5783C406.901 67.5853 406.927 67.5914 406.951 67.5973C407.142 67.2371 407.322 66.8906 407.514 66.5274L407.381 66.4518L408.01 65.1934C408.07 65.2254 408.129 65.2572 408.189 65.2887C408.217 64.9531 410.947 57.8553 411.042 57.6146C411.45 56.5714 413.512 50.8393 413.927 49.9734C414.305 50.1733 414.826 50.2904 415.221 50.4801C415.138 50.8367 414.955 51.237 414.836 51.5586L412.064 58.9196C411.81 59.6219 411.547 60.3323 411.267 61.0495C410.988 61.7622 410.758 62.4194 410.479 63.1328C410.274 63.6564 409.037 66.8142 408.918 67.3229L408.695 67.2596C408.624 67.5668 408.429 67.7409 408.358 68.0481C408.512 68.1221 408.707 68.1596 408.871 68.2098C409.649 68.4473 410.675 68.905 411.452 68.9486C411.741 68.9649 411.751 69.005 411.948 69.1282L415.725 71.2038C417.673 72.3358 419.703 73.3833 421.673 74.485C421.944 74.6366 422.229 74.8462 422.535 74.9175C422.857 74.7017 423.036 74.261 423.941 73.7907C424.837 73.3244 425.441 73.2285 426.529 73.2285C427.552 73.2285 428.629 73.7052 429.328 74.3686C429.453 74.4877 429.532 74.5191 429.631 74.6282C430.558 75.6511 430.973 76.7139 430.973 78.1835C430.973 80.5371 428.981 82.4347 426.714 82.7043C426.235 82.761 426.246 82.6418 426.132 83.0797C426.028 83.4787 425.976 83.4033 426.171 83.7768C426.454 84.3184 427.681 86.7222 427.71 87.0798C427.045 87.0798 426.433 87.1924 425.797 87.1924C425.234 86.1261 425.797 86.4349 425.797 85.8973C425.797 85.7878 425.404 84.8576 425.331 84.6749C424.602 82.855 424.967 83.7821 425.235 82.6316C423.716 82.2774 422.742 81.4476 421.995 80.1876C421.879 79.9923 421.845 79.8332 421.747 79.6474C421.348 79.7402 420.72 79.7981 420.323 79.8556C419.818 79.929 419.383 79.9813 418.887 80.0511C417.953 80.1828 416.987 80.3076 416.018 80.4452L411.716 81.0381C411.223 81.1115 410.867 81.0548 410.27 81.0548C410.214 81.296 409.98 81.7242 409.838 81.9171C409.671 82.1434 409.453 82.3792 409.241 82.5588C408.489 83.1974 407.829 83.3072 406.839 83.3072C405.691 83.3072 404.278 82.3084 404.026 81.2237C403.678 81.3907 400.75 81.4961 400.163 81.6372C399.783 81.7285 399.763 82.3499 398.962 82.3499C397.208 82.3499 397.347 79.9286 398.794 79.9286C399.739 79.9286 399.428 80.304 400.095 80.2232C400.539 80.1694 400.941 80.1251 401.379 80.0956C401.777 80.0688 402.278 80.0205 402.708 79.9613C403.535 79.8471 403.716 80.0083 403.8 79.6472C403.419 79.5585 403.049 79.4786 402.643 79.3983C402.54 79.3779 402.444 79.3605 402.353 79.3446L402.405 77.8952C402.438 77.8988 402.472 77.901 402.507 77.9018C402.507 77.8498 402.507 77.7981 402.506 77.7463L403.961 78.08L403.961 78.0664L403.961 78.0666L403.961 78.0661ZM407.176 70.6378C408.204 70.6378 409.701 70.475 410.777 70.4121C411.463 70.3723 411.388 70.4492 411.808 70.6757C413.27 71.4632 414.928 72.4377 416.346 73.1724C416.506 73.2552 416.625 73.31 416.786 73.4079L419.291 74.7856C419.47 74.8765 419.516 74.9211 419.684 75.0113L421.804 76.1559C421.71 76.5588 421.466 76.9163 421.466 77.7325V78.2955L418.719 78.643C417.839 78.7678 416.879 78.8928 415.999 79.0178C415.07 79.1496 414.211 79.252 413.277 79.3897C412.096 79.5639 411.64 79.6469 410.439 79.6469C410.259 78.8713 410.143 78.3177 409.526 77.6891C409.152 77.3079 408.342 76.7189 407.627 76.7189L407.022 73.7203C406.866 72.9339 406.806 73.0297 406.943 72.2066C407.019 71.7512 407.176 71.0949 407.176 70.6378ZM426.023 74.6354C427.124 74.6354 427.879 74.8865 428.598 75.6058C429.893 76.902 429.908 78.9958 428.569 80.3367C428.255 80.6507 428.047 80.8118 427.618 81.0181C425.415 82.0782 423.332 80.214 423.266 79.4215C423.685 79.4215 427.631 78.8559 428.439 78.7428C428.661 78.7116 428.957 78.6512 429.173 78.6332C428.965 78.4518 425.227 76.4417 424.542 76.0612C424.299 75.9258 424.115 75.7721 423.829 75.7053C423.888 75.4841 424.032 75.4243 424.206 75.2945C424.678 74.9429 425.364 74.6356 426.023 74.6356V74.6354H426.023ZM422.872 78.0702C422.872 77.4209 422.907 77.4654 423.041 76.8878C423.215 76.9281 423.317 76.9886 423.468 77.0801C423.638 77.1838 423.729 77.2235 423.903 77.3201C424.217 77.4944 424.604 77.6584 424.729 77.8449C424.103 77.8449 423.332 78.0599 422.872 78.07V78.0702ZM406.558 78.3518H406.164C406.248 78.2375 406.166 78.2493 406.368 78.2081C406.543 78.1724 406.517 78.1968 406.558 78.3518H406.558H406.558ZM407.964 78.2955C408.374 78.3911 408.936 79.1052 408.977 79.5905C408.722 79.5691 408.586 79.5342 408.246 79.5342C408.231 79.364 408.019 78.4105 407.964 78.2957V78.2955V78.2955ZM406.051 78.3518L406.068 78.3685C406.067 78.3675 406.046 78.3574 406.051 78.3518ZM407.233 81.8991C406.611 81.8991 405.908 81.6942 405.608 81.2052C405.486 81.0059 405.659 81.0596 406.338 81.0028L408.245 80.9416C408.528 80.9416 408.497 80.9923 408.752 80.9979C408.466 81.4256 407.938 81.8989 407.233 81.8989L407.233 81.8991ZM406.703 67.5312L405.591 70.7503H405.596L406.724 67.5373C406.717 67.5351 406.71 67.5332 406.703 67.5312V67.5312Z" fill="#C5C7C8"/>
<path fill-rule="evenodd" clip-rule="evenodd" d="M408.477 47.1275C408.419 47.1275 406.883 48.1361 406.621 48.1973C406.924 48.612 407.439 48.4329 407.634 48.4231L409.32 48.3088C410.055 48.2712 409.366 48.1968 410.52 48.3491C410.826 48.3897 411.017 48.3997 411.33 48.4387L416.19 49.0378C416.72 49.1032 416.978 48.9864 417.627 48.7967L418.697 48.5159C419.107 48.4193 418.997 48.572 418.997 47.0147C418.223 47.0147 416.044 47.2876 415.115 47.2953C414.17 47.303 414.309 47.486 413.194 47.3609L408.477 47.1274L408.477 47.1275Z" fill="#202934"/>
<path fill-rule="evenodd" clip-rule="evenodd" d="M250.354 188.954L340.509 188.874L341.236 185.305H250.354V188.954Z" fill="#CCCCCC"/>
</svg>
