<svg width="535" height="255" viewBox="0 0 535 255" fill="none" xmlns="http://www.w3.org/2000/svg">
<circle cx="90" cy="128" r="90" fill="#33B1C5" fill-opacity="0.1"/>
<circle cx="407.5" cy="127.5" r="127.5" fill="#33B1C5" fill-opacity="0.1"/>
<path d="M182 128H408" stroke="#006E8D" stroke-width="2" stroke-dasharray="3 3"/>
<path d="M408 128L375 101" stroke="#006E8D" stroke-width="2" stroke-dasharray="3 3"/>
<path d="M408 128L375 155" stroke="#006E8D" stroke-width="2" stroke-dasharray="3 3"/>
<path d="M408 128L441 101" stroke="#006E8D" stroke-width="2" stroke-dasharray="3 3"/>
<path d="M408 128L441 155" stroke="#006E8D" stroke-width="2" stroke-dasharray="3 3"/>
<path d="M341.6 160C338.508 160.003 336.003 162.508 336 165.6V210.4C336.003 213.492 338.508 215.997 341.6 216H380.8C381.831 216 382.667 215.164 382.667 214.133V161.867C382.667 160.836 381.831 160 380.8 160H341.6ZM341.6 161.867H380.8V204.8H345.333V165.6C345.333 165.085 344.915 164.667 344.4 164.667C343.885 164.667 343.467 165.085 343.467 165.6V204.8H341.6C340.221 204.8 338.89 205.313 337.867 206.237V165.6C337.867 163.538 339.538 161.867 341.6 161.867ZM337.867 210.4C337.867 208.338 339.538 206.667 341.6 206.667H377.067V214.133H341.6C339.538 214.133 337.867 212.462 337.867 210.4ZM380.8 214.133H378.933V206.667H380.8V214.133Z" fill="#33B1C5"/>
<path d="M347.2 209.467H342.533C342.017 209.467 341.6 209.885 341.6 210.4C341.6 210.915 342.017 211.333 342.533 211.333H347.2C347.715 211.333 348.133 210.915 348.133 210.4C348.133 209.885 347.715 209.467 347.2 209.467Z" fill="#33B1C5"/>
<path d="M374.266 209.467H350.933C350.417 209.467 350 209.885 350 210.4C350 210.915 350.417 211.333 350.933 211.333H374.266C374.782 211.333 375.2 210.915 375.2 210.4C375.2 209.885 374.782 209.467 374.266 209.467Z" fill="#33B1C5"/>
<path d="M349.066 194.533H377.066C378.097 194.533 378.933 193.698 378.933 192.667V168.4C378.933 167.369 378.097 166.533 377.066 166.533H349.066C348.035 166.533 347.2 167.369 347.2 168.4V192.667C347.2 193.698 348.035 194.533 349.066 194.533ZM349.066 168.4H377.066V192.667H349.066V168.4Z" fill="#33B1C5"/>
<path d="M371.193 179.873C370.828 179.509 370.238 179.509 369.873 179.873L365.779 183.968L359.108 176.192C358.923 175.986 358.66 175.868 358.383 175.867C358.105 175.872 357.844 176 357.671 176.217L351.137 184.383C350.929 184.644 350.875 184.996 350.997 185.306C351.118 185.617 351.396 185.839 351.726 185.89C352.055 185.94 352.387 185.81 352.595 185.55L358.425 178.263L364.455 185.293L363.335 186.413C363.092 186.648 362.995 186.995 363.081 187.321C363.166 187.647 363.421 187.902 363.747 187.988C364.073 188.073 364.42 187.976 364.655 187.733L370.533 181.853L373.606 184.927C373.973 185.28 374.555 185.275 374.915 184.915C375.275 184.555 375.28 183.973 374.926 183.607L371.193 179.873Z" fill="#33B1C5"/>
<path d="M368.666 177.733C370.728 177.733 372.4 176.062 372.4 174C372.4 171.938 370.728 170.267 368.666 170.267C366.605 170.267 364.933 171.938 364.933 174C364.933 176.062 366.605 177.733 368.666 177.733ZM368.666 172.133C369.697 172.133 370.533 172.969 370.533 174C370.533 175.031 369.697 175.867 368.666 175.867C367.636 175.867 366.8 175.031 366.8 174C366.8 172.969 367.636 172.133 368.666 172.133Z" fill="#33B1C5"/>
<path d="M373.333 196.4H352.8C352.284 196.4 351.866 196.818 351.866 197.333C351.866 197.849 352.284 198.267 352.8 198.267H373.333C373.848 198.267 374.266 197.849 374.266 197.333C374.266 196.818 373.848 196.4 373.333 196.4Z" fill="#33B1C5"/>
<path d="M370.533 200.133H355.599C355.084 200.133 354.666 200.551 354.666 201.067C354.666 201.582 355.084 202 355.599 202H370.533C371.048 202 371.466 201.582 371.466 201.067C371.466 200.551 371.048 200.133 370.533 200.133Z" fill="#33B1C5"/>
<path d="M428.75 198.35C428.613 198.35 428.475 198.328 428.337 198.28C423.353 196.543 420 191.808 420 186.5C420 179.895 425.148 174.473 431.64 174.03C433.37 165.39 441.083 159 450 159C457.002 159 463.452 162.945 466.632 169.11C474.188 169.903 480 176.305 480 184C480 189.678 476.862 194.788 471.815 197.34C471.2 197.645 470.445 197.403 470.135 196.788C469.825 196.17 470.072 195.42 470.688 195.108C474.89 192.985 477.5 188.73 477.5 184C477.5 177.383 472.342 171.913 465.757 171.548C465.295 171.523 464.888 171.245 464.693 170.828C462.048 165.163 456.283 161.5 450 161.5C441.962 161.5 435.057 167.488 433.938 175.425C433.85 176.04 433.323 176.5 432.7 176.5C426.985 176.5 422.5 180.985 422.5 186.5C422.5 190.745 425.177 194.53 429.163 195.923C429.815 196.15 430.157 196.863 429.93 197.515C429.75 198.028 429.267 198.35 428.75 198.35Z" fill="#33B1C5"/>
<path d="M450 204C446.552 204 443.75 201.197 443.75 197.75C443.75 194.302 446.552 191.5 450 191.5C453.447 191.5 456.25 194.302 456.25 197.75C456.25 201.197 453.447 204 450 204ZM450 194C447.932 194 446.25 195.682 446.25 197.75C446.25 199.817 447.932 201.5 450 201.5C452.067 201.5 453.75 199.817 453.75 197.75C453.75 195.682 452.067 194 450 194Z" fill="#33B1C5"/>
<path d="M461.25 209H438.75C436.683 209 435 207.318 435 205.25V192.75C435 190.683 436.683 189 438.75 189H441.25C441.64 189 442.015 188.813 442.248 188.5L444.498 185.5C445.203 184.563 446.323 184 447.498 184H452.498C453.673 184 454.793 184.56 455.498 185.5L457.748 188.5C457.983 188.813 458.355 189 458.745 189H461.245C463.313 189 464.995 190.683 464.995 192.75V205.25C465 207.318 463.318 209 461.25 209ZM438.75 191.5C438.063 191.5 437.5 192.063 437.5 192.75V205.25C437.5 205.938 438.063 206.5 438.75 206.5H461.25C461.938 206.5 462.5 205.938 462.5 205.25V192.75C462.5 192.063 461.938 191.5 461.25 191.5H458.75C457.575 191.5 456.453 190.938 455.75 189.998L453.5 187C453.265 186.685 452.89 186.5 452.5 186.5H447.5C447.11 186.5 446.735 186.685 446.503 187L444.253 189.998C443.548 190.938 442.425 191.5 441.25 191.5H438.75Z" fill="#33B1C5"/>
<path d="M111.117 83H69.2352C66.3485 83 64 85.3485 64 88.2352V167.112C64 169.998 66.3485 172.347 69.2352 172.347H111.117C114.003 172.347 116.352 169.998 116.352 167.112V88.2352C116.352 85.3485 114.003 83 111.117 83ZM67.4901 93.4703C67.4901 93.4703 67.4903 93.4703 67.4901 93.4703H78.2595C78.9797 95.5017 80.9204 96.9604 83.1956 96.9604H97.156C99.4312 96.9604 101.372 95.5017 102.092 93.4703H112.861V161.876H67.4903H67.4901V93.4703ZM69.2352 86.4901H111.117C112.079 86.4901 112.861 87.2729 112.861 88.2352V89.9802H100.646C99.6825 89.9802 98.901 90.7615 98.901 91.7253C98.901 92.6875 98.1182 93.4703 97.156 93.4703H83.1956C82.2334 93.4703 81.4505 92.6875 81.4505 91.7253C81.4505 90.7615 80.6691 89.9802 79.7055 89.9802H67.4903H67.4901V88.2352C67.4901 87.2729 68.2729 86.4901 69.2352 86.4901ZM112.861 167.112C112.861 168.074 112.079 168.857 111.117 168.857H69.2352C68.2729 168.857 67.4901 168.074 67.4901 167.112V165.366H67.4903H112.861V167.112Z" fill="#33B1C5"/>
<path d="M90.1761 147.916C87.7732 147.916 85.8135 149.876 85.8135 152.278C85.8135 154.681 87.7733 156.641 90.1761 156.641C92.5789 156.641 94.5387 154.681 94.5387 152.278C94.5386 149.876 92.5789 147.916 90.1761 147.916Z" fill="#33B1C5"/>
<path d="M74.4704 139.016H81.4506C82.4142 139.016 83.1957 138.235 83.1957 137.271C83.1957 136.307 82.4142 135.526 81.4506 135.526H76.2154V130.291C76.2154 129.327 75.434 128.546 74.4704 128.546C73.5068 128.546 72.7253 129.327 72.7253 130.291V137.271C72.7253 138.235 73.5068 139.016 74.4704 139.016Z" fill="#33B1C5"/>
<path d="M74.4704 114.585C75.434 114.585 76.2154 113.804 76.2154 112.84V107.605H81.4506C82.4142 107.605 83.1957 106.824 83.1957 105.86C83.1957 104.896 82.4142 104.115 81.4506 104.115H74.4704C73.5068 104.115 72.7253 104.896 72.7253 105.86V112.84C72.7253 113.804 73.5068 114.585 74.4704 114.585Z" fill="#33B1C5"/>
<path d="M98.9011 107.605H104.136V112.84C104.136 113.804 104.918 114.585 105.881 114.585C106.845 114.585 107.626 113.804 107.626 112.84V105.86C107.626 104.896 106.845 104.115 105.881 104.115H98.9011C97.9374 104.115 97.156 104.896 97.156 105.86C97.156 106.824 97.9374 107.605 98.9011 107.605Z" fill="#33B1C5"/>
<path d="M98.9011 139.016H105.881C106.845 139.016 107.626 138.235 107.626 137.271V130.291C107.626 129.327 106.845 128.546 105.881 128.546C104.918 128.546 104.136 129.327 104.136 130.291V135.526H98.9011C97.9374 135.526 97.156 136.307 97.156 137.271C97.156 138.235 97.9374 139.016 98.9011 139.016Z" fill="#33B1C5"/>
<path d="M86.6857 123.311H88.4308V125.056C88.4308 126.02 89.2122 126.801 90.1758 126.801C91.1394 126.801 91.9209 126.02 91.9209 125.056V123.311H93.6659C94.6296 123.311 95.411 122.529 95.411 121.566C95.411 120.602 94.6296 119.821 93.6659 119.821H91.9209V118.076C91.9209 117.112 91.1394 116.331 90.1758 116.331C89.2122 116.331 88.4308 117.112 88.4308 118.076V119.821H86.6857C85.7221 119.821 84.9407 120.602 84.9407 121.566C84.9407 122.529 85.7221 123.311 86.6857 123.311Z" fill="#33B1C5"/>
<path d="M471.07 67.6094C471.523 67.6094 471.891 67.2421 471.891 66.7891C471.891 66.336 471.523 65.9688 471.07 65.9688C470.617 65.9688 470.25 66.336 470.25 66.7891C470.25 67.2421 470.617 67.6094 471.07 67.6094Z" fill="#33B1C5"/>
<path d="M474.352 43H448.102C445.84 43 444 44.8399 444 47.1016V94.8984C444 97.1601 445.84 99 448.102 99H474.352C476.613 99 478.453 97.1601 478.453 94.8984V47.1016C478.453 44.8399 476.613 43 474.352 43ZM445.641 94.8984V47.1016C445.641 46.0321 446.327 45.1203 447.281 44.7817V83.4141C447.281 83.8671 447.649 84.2344 448.102 84.2344C448.555 84.2344 448.922 83.8671 448.922 83.4141V44.6406H473.531V97.3594H448.922V86.6953C448.922 86.2423 448.555 85.875 448.102 85.875C447.649 85.875 447.281 86.2423 447.281 86.6953V97.2183C446.327 96.8797 445.641 95.9679 445.641 94.8984ZM476.813 94.8984C476.813 95.9679 476.127 96.8797 475.172 97.2183V44.7817C476.127 45.1203 476.813 46.0321 476.813 47.1016V94.8984Z" fill="#33B1C5"/>
<path d="M451.383 56.125H471.07C471.523 56.125 471.891 55.7577 471.891 55.3047V50.3828C471.891 49.9298 471.523 49.5625 471.07 49.5625H451.383C450.93 49.5625 450.562 49.9298 450.562 50.3828V55.3047C450.562 55.7577 450.93 56.125 451.383 56.125ZM452.203 51.2031H470.25V54.4844H452.203V51.2031Z" fill="#33B1C5"/>
<path d="M451.383 64.3281H471.07C471.523 64.3281 471.891 63.9608 471.891 63.5078V58.5859C471.891 58.1329 471.523 57.7656 471.07 57.7656H451.383C450.93 57.7656 450.562 58.1329 450.562 58.5859V63.5078C450.562 63.9608 450.93 64.3281 451.383 64.3281ZM452.203 59.4063H470.25V62.6875H452.203V59.4063Z" fill="#33B1C5"/>
<path d="M461.227 80.9531C458.965 80.9531 457.125 82.793 457.125 85.0547C457.125 87.3163 458.965 89.1562 461.227 89.1562C463.488 89.1562 465.328 87.3163 465.328 85.0547C465.328 82.793 463.488 80.9531 461.227 80.9531ZM461.227 87.5156C459.87 87.5156 458.766 86.4117 458.766 85.0547C458.766 83.6977 459.87 82.5938 461.227 82.5938C462.584 82.5938 463.688 83.6977 463.688 85.0547C463.688 86.4117 462.584 87.5156 461.227 87.5156Z" fill="#33B1C5"/>
<path d="M461.227 77.6719C457.156 77.6719 453.844 80.9837 453.844 85.0547C453.844 89.1256 457.156 92.4375 461.227 92.4375C465.298 92.4375 468.61 89.1256 468.61 85.0547C468.61 80.9837 465.298 77.6719 461.227 77.6719ZM461.227 90.7969C458.061 90.7969 455.485 88.221 455.485 85.0547C455.485 81.8884 458.061 79.3125 461.227 79.3125C464.393 79.3125 466.969 81.8884 466.969 85.0547C466.969 88.221 464.393 90.7969 461.227 90.7969Z" fill="#33B1C5"/>
<path d="M369.714 43H340.635C338.631 43 337 44.472 337 46.2812V95.7188C337 97.528 338.631 99 340.635 99H369.714C371.718 99 373.349 97.528 373.349 95.7188V46.2812C373.349 44.472 371.718 43 369.714 43ZM339.423 49.5625C339.423 49.5625 339.423 49.5625 339.423 49.5625H346.901C347.401 50.8357 348.748 51.75 350.328 51.75H360.021C361.601 51.75 362.948 50.8357 363.448 49.5625H370.925V92.4375H339.423H339.423V49.5625ZM340.635 45.1875H369.714C370.382 45.1875 370.925 45.6782 370.925 46.2812V47.375H362.444C361.775 47.375 361.232 47.8647 361.232 48.4688C361.232 49.0718 360.689 49.5625 360.021 49.5625H350.328C349.66 49.5625 349.116 49.0718 349.116 48.4688C349.116 47.8647 348.574 47.375 347.905 47.375H339.423H339.423V46.2812C339.423 45.6782 339.967 45.1875 340.635 45.1875ZM370.925 95.7188C370.925 96.3218 370.382 96.8125 369.714 96.8125H340.635C339.967 96.8125 339.423 96.3218 339.423 95.7188V94.625H339.423H370.925V95.7188Z" fill="#33B1C5"/>
<path d="M355.174 83.6873C353.506 83.6873 352.145 84.9156 352.145 86.4216C352.145 87.9277 353.506 89.156 355.174 89.156C356.842 89.156 358.203 87.9277 358.203 86.4216C358.203 84.9156 356.842 83.6873 355.174 83.6873Z" fill="#33B1C5"/>
<path d="M344.269 78.1094H349.116C349.785 78.1094 350.327 77.6197 350.327 77.0157C350.327 76.4116 349.785 75.9219 349.116 75.9219H345.481V72.6407C345.481 72.0366 344.938 71.5469 344.269 71.5469C343.6 71.5469 343.058 72.0366 343.058 72.6407V77.0157C343.058 77.6196 343.6 78.1094 344.269 78.1094Z" fill="#33B1C5"/>
<path d="M344.269 62.7968C344.938 62.7968 345.481 62.3071 345.481 61.7031V58.4218H349.116C349.785 58.4218 350.327 57.9321 350.327 57.3281C350.327 56.724 349.785 56.2343 349.116 56.2343H344.269C343.6 56.2343 343.058 56.724 343.058 57.3281V61.7031C343.058 62.307 343.6 62.7968 344.269 62.7968Z" fill="#33B1C5"/>
<path d="M361.232 58.4218H364.867V61.7031C364.867 62.3071 365.41 62.7968 366.079 62.7968C366.748 62.7968 367.29 62.3071 367.29 61.7031V57.3281C367.29 56.724 366.748 56.2343 366.079 56.2343H361.232C360.563 56.2343 360.021 56.724 360.021 57.3281C360.021 57.9321 360.563 58.4218 361.232 58.4218Z" fill="#33B1C5"/>
<path d="M361.232 78.1094H366.079C366.748 78.1094 367.29 77.6197 367.29 77.0157V72.6407C367.29 72.0366 366.748 71.5469 366.079 71.5469C365.41 71.5469 364.867 72.0366 364.867 72.6407V75.9219H361.232C360.563 75.9219 360.021 76.4116 360.021 77.0157C360.021 77.6197 360.563 78.1094 361.232 78.1094Z" fill="#33B1C5"/>
<path d="M352.751 68.2657H353.963V69.3594C353.963 69.9635 354.505 70.4532 355.174 70.4532C355.843 70.4532 356.386 69.9635 356.386 69.3594V68.2657H357.598C358.267 68.2657 358.809 67.776 358.809 67.1719C358.809 66.5679 358.267 66.0782 357.598 66.0782H356.386V64.9844C356.386 64.3804 355.843 63.8907 355.174 63.8907C354.505 63.8907 353.963 64.3804 353.963 64.9844V66.0782H352.751C352.082 66.0782 351.54 66.5679 351.54 67.1719C351.54 67.776 352.082 68.2657 352.751 68.2657Z" fill="#33B1C5"/>
</svg>
